<svg width="289" height="150" viewBox="0 0 289 150" fill="none" xmlns="http://www.w3.org/2000/svg">
<g clip-path="url(#clip0_1_2)">
<path fill-rule="evenodd" clip-rule="evenodd" d="M171.91 -96.8364C211.893 -95.6695 253.951 -86.5427 278.364 -67.5409C300.936 -49.9716 285.77 -25.0242 292.217 -3.19413C297.401 14.3564 316.747 29.9243 312.357 47.5522C307.494 67.0817 291.989 85.7187 266.889 98.5193C240.6 111.926 205.78 123.191 171.91 119.176C139.082 115.286 128.856 89.7692 100.808 78.8356C70.1205 66.8726 16.6179 73.4292 2.59058 53.1712C-11.151 33.3262 33.8204 15.8937 42.8242 -4.90266C52.7979 -27.939 32.0688 -55.7692 57.6428 -73.9827C84.1374 -92.852 130.795 -98.0365 171.91 -96.8364Z" fill="#FDC435"/>
</g>
<defs>
<clipPath id="clip0_1_2">
<rect width="289" height="150" fill="white"/>
</clipPath>
</defs>
</svg>
